<svg width="162" height="187" viewBox="0 0 162 187" fill="none" xmlns="http://www.w3.org/2000/svg">
<path d="M159.398 38.9249C158.795 38.441 158.073 38.13 157.307 38.0253C156.541 37.9206 155.762 38.0261 155.051 38.3306L85.876 68.285C82.8684 69.5955 79.1017 70.2185 75.2347 70.2185C69.8425 70.24 64.2641 68.9868 60.3757 67.2825C59.1907 66.7834 58.0624 66.1592 57.01 65.4206C57.2964 65.2774 57.6545 65.1199 58.0484 64.9623L120.965 37.7219L130.346 41.732V30.0095C130.36 29.1735 130.185 28.3452 129.834 27.5863C129.483 26.8274 128.965 26.1576 128.319 25.627C127.719 25.1435 126.999 24.8328 126.236 24.728C125.472 24.6233 124.695 24.7286 123.987 25.0326L54.8116 54.9871C52.6776 55.8464 50.8444 56.9062 49.2976 58.4458C47.5065 60.2129 46.4892 62.6182 46.469 65.1342C46.469 65.2058 46.4905 65.3275 46.4905 65.3275V170.809L46.4762 170.952C46.4762 170.981 46.4977 170.995 46.4977 171.024V171.138H46.512C46.6552 174.826 48.5171 177.175 50.293 178.837C55.8786 183.763 65.2595 186.52 75.2419 186.664C79.9682 186.664 84.766 185.947 89.2059 184.043L158.403 154.081C160.229 153.293 161.425 151.338 161.425 149.126V43.3075C161.436 42.472 161.259 41.6446 160.909 40.8862C160.558 40.1278 160.042 39.4576 159.398 38.9249V38.9249ZM115.523 18.8741C115.401 17.2987 114.749 15.7949 113.589 14.8926C112.987 14.4087 112.264 14.0977 111.498 13.993C110.732 13.8883 109.953 13.9938 109.242 14.2983L40.0671 44.2384C37.0595 45.5417 33.2856 46.1719 29.4258 46.1719C24.0336 46.1862 18.4552 44.933 14.5668 43.2215C13.3806 42.7308 12.252 42.1112 11.2011 41.374C11.4875 41.2308 11.8456 41.0732 12.2394 40.9157L75.1631 13.6752L84.544 17.6854V5.97717C84.5568 5.14071 84.3805 4.31215 84.0284 3.55332C83.6763 2.79448 83.1573 2.12494 82.5103 1.59464C81.9089 1.11131 81.1874 0.800661 80.4229 0.695962C79.6585 0.591263 78.88 0.696457 78.1708 1.00028L8.9955 30.9619C6.86152 31.8212 5.03547 32.8739 3.48153 34.4207C1.69301 36.1889 0.678415 38.5941 0.660095 41.109C0.660095 41.195 0.681577 41.3095 0.681577 41.3095V147.128H0.695901C0.839121 150.816 2.70098 153.164 4.47691 154.826C10.0625 159.752 19.4434 162.502 29.433 162.646C32.1459 162.63 34.85 162.337 37.5034 161.772V65.3204C37.4318 60.3077 39.4369 55.4955 42.9601 52.0296C45.401 49.6618 48.3012 47.8194 51.4817 46.6158L115.523 18.8741V18.8741Z" fill="#E75C62"/>
</svg>
